<svg id="Calque_1" data-name="Calque 1" xmlns="http://www.w3.org/2000/svg" viewBox="0 0 595.28 841.89"><defs><style>.cls-1{fill:#42b5c9;}.cls-2{fill:#4a4a4a;}.cls-3{fill:#8fc247;}.cls-4{fill:#0b79be;}.cls-5{fill:#ef413c;}.cls-6{fill:#ca3890;}.cls-7{fill:#f17e2d;}.cls-8{fill:#f5b41c;}.cls-9{fill:#624e9e;}.cls-10{fill:#fff;}</style></defs><path class="cls-1" d="M207.73,342.62c-1.11.91-2.44.46-3.66.46-23,0-46-.05-69,.07-2.9,0-4.67-.64-6.29-3.24-2.61-4.22-8.11-5.18-13.59-3-5.82,2.32-7.24,4.84-6.59,10.81.34,3.11,2.12,6,.51,9.5-1,2.11,5.18,7.59,7.87,7.63,4.19.05,6,2.06,4.17,5.72-4,7.91-3.11,15.82-1,23.82.91,3.45-.38,4.38-3.33,3.24-2.7-1-6.67-.48-6.56-5.54,0-2.23-2.66-3.87-5-3.94-2.91-.09-3.81,2.65-4.74,4.81-1.06,2.48,1.07,3.56,2.69,4.5,5.63,3.3,11.33,6.46,17,9.63,1.29.72,2.65,1.24,3.19,2.82a202.42,202.42,0,0,1,5.39,20.81c.4,1.76-.69,3.13-1.57,4.49-6,9.33-11.76,18.8-18.08,27.9a18.44,18.44,0,0,0-3.25,13.33c.2,1.84.65,4.32-1.13,5.45s-3.26-.95-4.73-1.78c-10.06-5.72-20.12-11.46-30-17.39-12.17-7.27-18.5-17.88-18.37-32.3q.24-28.4,0-56.8c-.12-15,6.62-25.78,19.46-33.13,15.56-8.91,31.12-17.82,46.56-26.94,13.61-8,27-8.28,40.7-.18,15.86,9.36,31.91,18.39,47.88,27.58C206.82,341.34,207.72,341.5,207.73,342.62Z"/><path class="cls-2" d="M471.72,398.89c1.08-7.05,2.39-14.08,3.17-21.16.66-5.89,4.86-4,8-4,4.38-.09,2.63,3,2.28,5.16-2,12.7-4.11,25.38-5.9,38.1-.37,2.61-1.34,2.93-3.62,3.22-5.48.72-8.54-1.14-10.36-6.57a107.66,107.66,0,0,0-9-19.16c-1.21,7.4-2.57,14.78-3.6,22.21-.92,6.67-5.88,2.93-8.8,3.22-4,.4-1.6-3-1.38-4.53,1.86-12.89,4-25.73,5.89-38.61.38-2.6,1.52-2.26,3.65-2.72,7.48-1.65,9.6,2.57,11.53,8.4s4.67,11.22,7.06,16.81Z"/><path class="cls-2" d="M399.86,375.37c3.56,7.94,7.11,15.88,11.2,25,1.39-8.47,2.68-15.8,3.75-23.16.35-2.41.32-3.66,3.75-3.16,7,1,7,.6,5.91,7.84-1.77,11.25-3.45,22.5-5.29,33.73-.3,1.8.4,4.9-3,4.36-3.28-.52-7.51,2.25-9.57-3.05-3-7.63-6.4-15.08-10.19-23.91l-4.1,22.65c-2.82,3.89-6.42,3.48-10.24,1.86,1.89-13.45,3.81-26.91,6.55-40.22C391.67,372.76,395.79,374.2,399.86,375.37Z"/><path class="cls-3" d="M178.21,363.42c-13.71,0-27.42,0-41.13,0-1.77,0-3.25-.28-4.16-1.91-.71-1.26-1.89-2.6-1.26-4s2.32-.75,3.53-.76c10.61,0,21.22,0,31.83-.05,1.47,0,3.93.79,4-1.47s-2.44-1.56-3.88-1.57c-10.61-.08-21.22,0-31.83-.06-1.89,0-4,.5-4-2.71,0-2.9,1.7-3,3.86-3,25.62,0,51.25.12,76.88,0,4.69,0,6,3.51,7.78,6.36,1.58,2.52,4.35,5.66,2.88,8.35-1.23,2.27-5.09.82-7.77.84-12.24.12-24.48.05-36.72.05Z"/><path class="cls-2" d="M356.72,375.37l11.09,24.78c1.48-7.92,2.79-14.95,4.11-22,3.11-4.93,7.2-5.29,9.95-.89q-3,19.74-6,39.47c-.27,1.8-.67,3.66-3.22,3.31-3.24-.45-7.23,1.67-9.15-3.1-2.61-6.46-5.43-12.84-8.28-19.19-.5-1.1-.45-2.62-2.2-3.37-1.32,7.14-2.63,14.17-3.94,21.21-3.1,3.67-6.6,4-10.07,1,1.87-13.13,3.53-26.31,6.38-39.28C348.5,372.8,352.63,374.18,356.72,375.37Z"/><path class="cls-2" d="M286.92,373.55c7.59,2.36,9.3,4.32,9.12,11.64-.17,6.58-.59,13.25-7.94,16.39-2,.86-1,2.1-.61,3.2,1.41,4,2.89,8,4.37,11.92.82,2.2.93,3.59-2.27,3.44-9.4-.45-7.77,1.8-10.69-8-.74-2.49-1.58-5-2.21-7.48-.57-2.24-2.15-2.59-4.07-2.62-2.22,0-2,1.61-2.24,3-.49,3.22-.84,6.48-1.61,9.64-.42,1.76.71,4.56-1.71,5.11-2.63.61-5.51.3-8.27.14-1.4-.08-1-1.32-.84-2.29,2.57-14.4,4.06-29,7.27-43.27l1.19-.95,1,0A43.18,43.18,0,0,0,286.92,373.55ZM277.34,394c6.11,0,8.18-2,8.25-7.22.07-5.08-3.44-4.49-6.7-4.47-5,.05-6.7,2.43-6.35,9.62C272.75,396.05,276.17,392.79,277.34,394Z"/><path class="cls-4" d="M166.44,485.72c-8.14,4.73-15.92,10.28-25.88,10.69A38,38,0,0,1,123,493.18c-2.15-1-3.14-2.16-2.1-4.47a.94.94,0,0,0,.14-.47c-1.39-12.51,8.46-18.32,15.54-25.69a44.62,44.62,0,0,0,4.53-4.89c3.62-1.1,4.08,3.33,6.78,3.85l.1.15a2.31,2.31,0,0,0,2.08,2.57l.14.15c-.16,1.46.11,2.59,1.94,2.53l.24.29c.5,1.88,1.18,3.61,3.37,4.09l.09.12c0,.83.2,1.47,1.22,1.41l.23.23c-.43,3.44,2.25,4,4.54,4.9l.08.08a1.31,1.31,0,0,0,1.65,1.11l.13.06c1.25,1.54,3,.89,4.55.94,1.74.05,3.27.21,3.66,2.31l-.27.19C169.16,482.44,167.68,483.89,166.44,485.72Z"/><path class="cls-2" d="M515.07,381.94c-2-.13-3.9-.35-5.85-.37-4.39,0-7.46,1.88-8.91,6.17a53,53,0,0,0-2.88,16.76c0,4.81,2.09,6.61,6.64,6.16s7.73-4.3,6.92-8.37c-.14-.71-.33-1.23-1.11-1.29-1.79-.13-4.05.68-3.39-2.8.57-3.05,2.09-4.85,5.06-4.9a87.21,87.21,0,0,1,9.54.67c1.72.15,1.43,1.4,1.25,2.56-1.09,7.08-2.1,14.17-3.3,21.23-.44,2.58-6.21,3.76-8.45,1.3-1.82-2-2.69-1.13-4.35-.31-9.61,4.69-18.13.4-19.3-10-1.09-9.74.94-19.12,5-28,2-4.49,5.75-6.89,10.58-7.65,6.88-1.09,13.62-.24,20.33,1.3,3.65.84,1.47,3.26,1.43,5.05s.14,3.75-2.85,3.13a52.81,52.81,0,0,0-6.32-.54Z"/><path class="cls-5" d="M154.85,424.25h30.39c1.31,0,2.61,0,3.92,0s2.54-.09,2.62-1.54c.11-1.95-1.6-1.74-2.83-1.75-10.77,0-21.54,0-32.32,0a9.38,9.38,0,0,1-3.37-.29c-1.66-.69-2.17-2.89-.89-3.46,2.87-1.29,4.73-4.16,8.55-4.11,20.07.25,40.15.18,60.22.09,2.88,0,3.93.63,4,3.75.23,13.33.34,13.33-13,13.33-16.81,0-33.62-.14-50.43.09C157.39,430.35,155.42,428.78,154.85,424.25Z"/><path class="cls-2" d="M338.86,376.37c-1.24,10.48-1.93,21.08-4.86,31.26-3.38,11.74-20.44,17.35-30.43,10.22-4.53-3.23-5.09-8.26-4.67-13.18a186.33,186.33,0,0,1,4.35-27.34c3-3.69,6.6-4.06,10.05-1q-1.57,10.85-3.14,21.68a53.23,53.23,0,0,0-.64,5.32c-.14,3.09-.62,6.52,3.71,7.27,4.12.71,8,.32,9.78-4.23,2.56-6.42,2.55-13.38,3.95-20,.63-3,1.2-6,1.79-9C331.83,373.59,335.29,373.26,338.86,376.37Z"/><path class="cls-6" d="M162.25,445.84c4.33,0,7.85,0,11.37,0,1.12,0,2.54.14,2.62-1.44s-1.32-1.64-2.45-1.66c-3.58-.06-7.18-.21-10.74,0-2.87.18-4.3-1.39-5-3.66s-.55-4.09,2.76-4.08q30.54.12,61.07,0c2.23,0,2.87.84,2.44,2.95a41.56,41.56,0,0,1-4.94,12.66c-1.05,1.8-2.5,2.24-4.47,2.23-15.14-.06-30.29-.18-45.43,0C164.6,452.9,164.66,449,162.25,445.84Z"/><path class="cls-7" d="M192.07,408.36c-9.62,0-19.23,0-28.85,0-1.64,0-4.31.73-4.25-1.82,0-2.28,1.82-4,4.65-3.92,3.91.1,7.82,0,11.73,0q17.85,0,35.69,0a26.55,26.55,0,0,0,3.89-.22,1.41,1.41,0,0,0,1.29-1.71c-.12-.84-.8-1-1.41-1.06-1.3-.12-2.6-.16-3.9-.15-14.18,0-28.36,0-42.53,0-1.41,0-3.31.74-4.13-.57s.9-2.52,1.44-3.8c1.64-3.85,4.29-5.36,8.73-5.27,15.47.31,31,.2,46.43.08,3.11,0,4.49.74,4.19,4.08-.41,4.52,1.8,10.32-.81,13.27s-8.61.84-13.1,1c-6.35.2-12.71.05-19.07.05Z"/><path class="cls-8" d="M157.89,368.84c2.86-.21,4.53-.42,6.2-.43,18.73,0,37.46.12,56.19-.05,3.67,0,4.71,1,4.7,4.66,0,12,.13,12-11.89,12-11.72,0-23.45,0-35.18-.08-1.42,0-4,1-4-1.21a3.94,3.94,0,0,1,4.31-4.24c4.72.13,9.44.1,14.16,0,1.51,0,4,.63,4.06-1.45,0-2.71-2.71-1.3-4.25-1.62a6.62,6.62,0,0,0-2.43,0C178.47,378.43,169,372.87,157.89,368.84Z"/><path class="cls-2" d="M425,418.48c2.13-13.67,4.23-27.34,6.4-41,1-6.32,5.9-2.3,8.93-3.07,1.78-.46,2,.15,1.36,4.22-1.67,10.43-3.41,20.85-5.13,31.28l-.82.39.63.41-.6,3.87C433.24,418.75,429.29,419.06,425,418.48Z"/><path class="cls-9" d="M169.28,457.71h44.05c-5.43,4.85-11.14,7.42-16.48,10.49-1.36.78-2.85-.42-4.17-.92-4.49-1.68-9.26-3.08-13.86-2.17C172.66,466.32,170.93,462.89,169.28,457.71Z"/><path class="cls-7" d="M149.55,406.13V382.37c0-1.65.77-2.36,2.44-2.11,2.89.44,5.79.84,8.69,1.24,1.12.16,2,.72,1.57,1.9-2.91,8.21-5.73,16.47-11.48,23.19Z"/><path class="cls-2" d="M381.87,377.29c-2.75-4.4-6.84-4-9.95.89.31-1.62-.73-4.2,1.14-4.64a20.32,20.32,0,0,1,8.54,0C383.18,373.92,381.93,376,381.87,377.29Z"/><path class="cls-2" d="M425,418.48c4.27.58,8.22.27,10.77-3.9-.32,1.94.57,5.12-1.94,5.24C431,420,427.46,421.89,425,418.48Z"/><path class="cls-2" d="M382,417.56c3.82,1.62,7.42,2,10.24-1.86-.31,2,.2,5.08-3.33,4C386.65,419,383,422.42,382,417.56Z"/><path class="cls-1" d="M171.88,482.45c-.39-2.1-1.92-2.26-3.66-2.31-1.55-.05-3.3.6-4.55-.94h14.22C175.65,480.68,174,482,171.88,482.45Z"/><path class="cls-2" d="M339,416.61c3.47,3,7,2.68,10.07-1,.3,6.79-4.86,3.52-7.82,4.15C338.46,420.37,338.38,418.66,339,416.61Z"/><path class="cls-2" d="M286.92,373.55a43.18,43.18,0,0,1-19.52-.09Z"/><path class="cls-1" d="M147.86,461.51c-2.7-.52-3.16-4.95-6.78-3.85,1-2.36,2.32-2.74,3.9-.47C146,458.62,146.9,460.07,147.86,461.51Z"/><path class="cls-2" d="M313.3,376.32c-3.45-3.05-7.07-2.68-10.05,1-.42-6.2,4.26-3.47,7-3.94C312.36,373.05,314.37,373.21,313.3,376.32Z"/><path class="cls-2" d="M399.86,375.37c-4.07-1.17-8.19-2.61-11.27,2-.33-2.95.67-4.84,3.91-3.93C395,374.09,398.38,371.19,399.86,375.37Z"/><path class="cls-2" d="M356.72,375.37c-4.09-1.19-8.22-2.57-11.33,2,.47-1.34-.64-4.08,1.55-3.78C350.19,374,354.25,370.89,356.72,375.37Z"/><path class="cls-2" d="M338.86,376.37c-3.57-3.11-7-2.78-10.11,1-.57-5.84,3.81-3.68,6.55-3.94C337.29,373.19,339.93,372.7,338.86,376.37Z"/><path class="cls-1" d="M161.81,478c-2.29-.91-5-1.46-4.54-4.9A13.59,13.59,0,0,1,161.81,478Z"/><path class="cls-1" d="M166.44,485.72c1.24-1.83,2.72-3.28,5.17-3.08A12.36,12.36,0,0,1,166.44,485.72Z"/><path class="cls-1" d="M155.73,471.29c-2.19-.48-2.87-2.21-3.37-4.09A8.65,8.65,0,0,1,155.73,471.29Z"/><path class="cls-1" d="M152.12,466.91c-1.83.06-2.1-1.07-1.94-2.53A3.6,3.6,0,0,1,152.12,466.91Z"/><path class="cls-1" d="M150,464.23a2.31,2.31,0,0,1-2.08-2.57A3.71,3.71,0,0,1,150,464.23Z"/><path class="cls-1" d="M157,472.82c-1,.06-1.23-.58-1.22-1.41Z"/><path class="cls-1" d="M163.54,479.14a1.31,1.31,0,0,1-1.65-1.11Z"/><path class="cls-2" d="M266.41,373.44l-1.19.95C265.25,373.62,265.69,373.35,266.41,373.44Z"/><path class="cls-2" d="M436.39,410.71l-.63-.41.82-.39A.73.73,0,0,1,436.39,410.71Z"/><path class="cls-10" d="M277.34,394c-1.17-1.17-4.59,2.09-4.8-2.07-.35-7.19,1.31-9.57,6.35-9.62,3.26,0,6.77-.61,6.7,4.47C285.52,392,283.45,394,277.34,394Z"/></svg>